<mxfile host="app.diagrams.net" modified="2024-05-14T08:19:06.543Z" agent="Mozilla/5.0 (Windows NT 10.0; Win64; x64) AppleWebKit/537.36 (KHTML, like Gecko) Chrome/124.0.0.0 Safari/537.36" version="24.2.7" etag="VjuqytBn-zNail9cspT_" type="github">
  <diagram name="페이지-1" id="9A3czXgmAmfWOA5UhBVT">
    <mxGraphModel>
      <root>
        <mxCell id="0" />
        <mxCell id="1" parent="0" />
      </root>
    </mxGraphModel>
  </diagram>
</mxfile>
